<svg width="21" height="18" viewBox="0 0 21 18" fill="none" xmlns="http://www.w3.org/2000/svg">
<g clip-path="url(#clip0_8_6164)">
<path d="M10.4111 0.763184C10.3447 0.796387 10.1787 0.879395 9.91309 1.01221C9.63639 1.14502 9.3431 1.29167 9.0332 1.45215C8.72331 1.61263 8.44661 1.75928 8.20312 1.89209C7.94857 2.0249 7.81022 2.10238 7.78809 2.12451C7.64421 2.24626 7.56673 2.40397 7.55566 2.59766C7.5446 2.79134 7.60547 2.96566 7.73828 3.12061C7.81576 3.19808 7.89323 3.25618 7.9707 3.29492C8.04818 3.33366 8.14779 3.35303 8.26953 3.35303H8.46875L9.19922 2.98779C9.39844 2.88818 9.56999 2.80241 9.71387 2.73047C9.85775 2.65853 9.93522 2.62256 9.94629 2.62256C9.94629 2.62256 9.94629 2.68896 9.94629 2.82178C9.94629 2.95459 9.94629 3.11507 9.94629 3.30322C9.94629 3.49137 9.94906 3.66016 9.95459 3.80957C9.96012 3.95898 9.96842 4.04476 9.97949 4.06689C10.0127 4.19971 10.0985 4.31315 10.2368 4.40723C10.3752 4.5013 10.5163 4.54834 10.6602 4.54834C10.804 4.54834 10.9451 4.5013 11.0835 4.40723C11.2218 4.31315 11.3076 4.19971 11.3408 4.06689C11.3519 4.04476 11.3602 3.95898 11.3657 3.80957C11.3713 3.66016 11.374 3.49137 11.374 3.30322C11.374 3.11507 11.374 2.95459 11.374 2.82178C11.374 2.68896 11.374 2.62256 11.374 2.62256C11.3851 2.62256 11.4626 2.65853 11.6064 2.73047C11.7503 2.80241 11.9219 2.88818 12.1211 2.98779L12.8516 3.35303H13.0508C13.1725 3.35303 13.2721 3.33366 13.3496 3.29492C13.4271 3.25618 13.5046 3.19808 13.582 3.12061C13.7148 2.96566 13.7757 2.79134 13.7646 2.59766C13.7536 2.40397 13.6761 2.24626 13.5322 2.12451C13.5101 2.10238 13.3607 2.0166 13.084 1.86719C12.8073 1.71777 12.4919 1.55453 12.1377 1.37744C11.5068 1.06754 11.1222 0.882162 10.9839 0.821289C10.8455 0.760416 10.7376 0.72998 10.6602 0.72998C10.6159 0.72998 10.5716 0.732748 10.5273 0.738281C10.4831 0.743814 10.4443 0.752115 10.4111 0.763184ZM4.41797 3.76807C4.07487 3.93408 3.77051 4.0835 3.50488 4.21631C3.23926 4.34912 3.09538 4.42659 3.07324 4.44873C3.0179 4.47087 2.9598 4.52344 2.89893 4.60645C2.83805 4.68945 2.79655 4.76416 2.77441 4.83057C2.77441 4.86377 2.77165 5.00488 2.76611 5.25391C2.76058 5.50293 2.75781 5.8488 2.75781 6.2915C2.76888 6.9445 2.77718 7.33464 2.78271 7.46191C2.78825 7.58919 2.80208 7.6805 2.82422 7.73584C2.89062 7.85758 2.9847 7.95719 3.10645 8.03467C3.22819 8.11214 3.34993 8.15088 3.47168 8.15088C3.60449 8.15088 3.729 8.11214 3.84521 8.03467C3.96143 7.95719 4.05273 7.85758 4.11914 7.73584C4.15234 7.69157 4.17171 7.62793 4.17725 7.54492C4.18278 7.46191 4.19108 7.25439 4.20215 6.92236C4.20215 6.73421 4.20215 6.57096 4.20215 6.43262C4.20215 6.29427 4.20768 6.2251 4.21875 6.2251C4.21875 6.2251 4.28792 6.2583 4.42627 6.32471C4.56462 6.39111 4.72786 6.47412 4.91602 6.57373C5.29232 6.75081 5.54688 6.86149 5.67969 6.90576C5.8125 6.95003 5.92871 6.9611 6.02832 6.93896C6.26074 6.87256 6.42399 6.73698 6.51807 6.53223C6.61214 6.32747 6.60938 6.12549 6.50977 5.92627C6.48763 5.882 6.46273 5.8405 6.43506 5.80176C6.40739 5.76302 6.38249 5.73258 6.36035 5.71045C6.34928 5.69938 6.27734 5.65511 6.14453 5.57764C6.01172 5.50016 5.8623 5.42269 5.69629 5.34521L5.09863 5.04639L5.66309 4.74756C5.8291 4.67008 5.97852 4.59538 6.11133 4.52344C6.24414 4.4515 6.32161 4.40446 6.34375 4.38232C6.42122 4.31592 6.47933 4.23291 6.51807 4.1333C6.5568 4.03369 6.57617 3.93962 6.57617 3.85107C6.57617 3.75146 6.56234 3.66292 6.53467 3.58545C6.507 3.50798 6.45996 3.4305 6.39355 3.35303C6.31608 3.28662 6.23584 3.23405 6.15283 3.19531C6.06982 3.15658 5.97298 3.13721 5.8623 3.13721C5.77376 3.13721 5.66585 3.16488 5.53857 3.22021C5.4113 3.27555 5.03776 3.45817 4.41797 3.76807ZM15.1592 3.18701C15.0817 3.22021 15.007 3.27555 14.9351 3.35303C14.8631 3.4305 14.8105 3.50798 14.7773 3.58545C14.7331 3.70719 14.7275 3.84554 14.7607 4.00049C14.7939 4.15544 14.8659 4.28271 14.9766 4.38232C14.9987 4.40446 15.0762 4.4515 15.209 4.52344C15.3418 4.59538 15.4912 4.67008 15.6572 4.74756L16.2217 5.04639L15.624 5.34521C15.458 5.42269 15.3086 5.50016 15.1758 5.57764C15.043 5.65511 14.9655 5.69938 14.9434 5.71045C14.888 5.77686 14.841 5.8571 14.8022 5.95117C14.7635 6.04525 14.7441 6.14209 14.7441 6.2417C14.7441 6.40771 14.7939 6.55436 14.8936 6.68164C14.9932 6.80892 15.126 6.89469 15.292 6.93896C15.3916 6.9611 15.5078 6.95003 15.6406 6.90576C15.7734 6.86149 16.028 6.75081 16.4043 6.57373C16.5924 6.47412 16.7557 6.39111 16.894 6.32471C17.0324 6.2583 17.1016 6.2251 17.1016 6.2251C17.1126 6.2251 17.1182 6.29427 17.1182 6.43262C17.1182 6.57096 17.1182 6.73421 17.1182 6.92236C17.1292 7.25439 17.1375 7.46191 17.1431 7.54492C17.1486 7.62793 17.168 7.69157 17.2012 7.73584C17.3451 8.01253 17.5581 8.15088 17.8403 8.15088C18.1226 8.15088 18.3411 8.01253 18.4961 7.73584C18.5182 7.6805 18.5321 7.58919 18.5376 7.46191C18.5431 7.33464 18.5514 6.93343 18.5625 6.2583V4.88037L18.4961 4.74756C18.474 4.70329 18.4491 4.65902 18.4214 4.61475C18.3937 4.57048 18.3688 4.53727 18.3467 4.51514C18.3135 4.493 17.9067 4.28271 17.1265 3.88428C16.3462 3.48584 15.8786 3.25342 15.7236 3.18701C15.6462 3.15381 15.5493 3.13721 15.4331 3.13721C15.3169 3.13721 15.2256 3.15381 15.1592 3.18701ZM8.08691 6.73975C7.86556 6.80615 7.70785 6.94173 7.61377 7.14648C7.51969 7.35124 7.52246 7.55322 7.62207 7.75244C7.67741 7.85205 7.77702 7.94889 7.9209 8.04297C8.06478 8.13704 8.40234 8.31689 8.93359 8.58252L9.94629 9.08057V10.1431C9.94629 10.7297 9.95736 11.0811 9.97949 11.1973C10.0016 11.3135 10.0625 11.4269 10.1621 11.5376C10.2285 11.604 10.3005 11.6538 10.3779 11.687C10.4554 11.7202 10.5495 11.7368 10.6602 11.7368C10.7708 11.7368 10.8649 11.7202 10.9424 11.687C11.0199 11.6538 11.0918 11.604 11.1582 11.5376C11.2578 11.4269 11.3187 11.3135 11.3408 11.1973C11.363 11.0811 11.374 10.7297 11.374 10.1431V9.08057L12.3867 8.58252C12.918 8.31689 13.2555 8.13704 13.3994 8.04297C13.5433 7.94889 13.6429 7.85205 13.6982 7.75244C13.7646 7.61963 13.784 7.47298 13.7563 7.3125C13.7287 7.15202 13.6595 7.02197 13.5488 6.92236C13.4714 6.84489 13.3939 6.79232 13.3164 6.76465C13.2389 6.73698 13.1504 6.72314 13.0508 6.72314C12.9622 6.72314 12.8626 6.74805 12.752 6.79785C12.6413 6.84766 12.3092 7.00537 11.7559 7.271L10.6602 7.81885L9.56445 7.2876C8.97786 6.99984 8.6154 6.82829 8.47705 6.77295C8.3387 6.71761 8.20866 6.70654 8.08691 6.73975ZM3.28906 10.3257C3.18945 10.3589 3.09814 10.4115 3.01514 10.4834C2.93213 10.5553 2.86849 10.6356 2.82422 10.7241C2.80208 10.7795 2.78825 10.8791 2.78271 11.0229C2.77718 11.1668 2.76888 11.5597 2.75781 12.2017V13.5796L2.82422 13.7124C2.84635 13.7567 2.87126 13.8009 2.89893 13.8452C2.9266 13.8895 2.9515 13.9227 2.97363 13.9448C3.00684 13.967 3.16178 14.05 3.43848 14.1938C3.71517 14.3377 4.01676 14.4927 4.34326 14.6587C4.66976 14.8247 4.97689 14.9741 5.26465 15.1069C5.55241 15.2397 5.71842 15.3117 5.7627 15.3228C5.8291 15.3338 5.90381 15.3338 5.98682 15.3228C6.06982 15.3117 6.14453 15.2896 6.21094 15.2563C6.26628 15.2231 6.32715 15.1678 6.39355 15.0903C6.45996 15.0129 6.50977 14.9409 6.54297 14.8745C6.58724 14.7528 6.59277 14.6144 6.55957 14.4595C6.52637 14.3045 6.45443 14.1828 6.34375 14.0942C6.32161 14.0721 6.24414 14.0251 6.11133 13.9531C5.97852 13.8812 5.83464 13.8065 5.67969 13.729C5.52474 13.6515 5.38916 13.5824 5.27295 13.5215C5.15674 13.4606 5.09863 13.4302 5.09863 13.4302C5.09863 13.4191 5.15674 13.3859 5.27295 13.3306C5.38916 13.2752 5.52474 13.2033 5.67969 13.1147C5.83464 13.0373 5.97852 12.9626 6.11133 12.8906C6.24414 12.8187 6.32161 12.7772 6.34375 12.7661C6.41016 12.6997 6.46549 12.6167 6.50977 12.5171C6.55404 12.4175 6.57617 12.3234 6.57617 12.2349C6.57617 12.0246 6.50977 11.853 6.37695 11.7202C6.24414 11.5874 6.07812 11.521 5.87891 11.521C5.79036 11.521 5.70459 11.5376 5.62158 11.5708C5.53857 11.604 5.31445 11.7091 4.94922 11.8862L4.20215 12.2515V11.5376C4.19108 11.2277 4.18278 11.0257 4.17725 10.9316C4.17171 10.8376 4.15788 10.7684 4.13574 10.7241C4.09147 10.6577 4.0389 10.5941 3.97803 10.5332C3.91715 10.4723 3.85352 10.4253 3.78711 10.3921C3.73177 10.3589 3.64876 10.3368 3.53809 10.3257C3.42741 10.3146 3.3444 10.3146 3.28906 10.3257ZM17.666 10.3257C17.5553 10.3589 17.4613 10.4115 17.3838 10.4834C17.3063 10.5553 17.2399 10.6356 17.1846 10.7241C17.1624 10.7684 17.1486 10.8376 17.1431 10.9316C17.1375 11.0257 17.1292 11.2277 17.1182 11.5376V12.2515L16.3711 11.8862C16.0059 11.7091 15.7817 11.604 15.6987 11.5708C15.6157 11.5376 15.5299 11.521 15.4414 11.521C15.2422 11.521 15.0762 11.5874 14.9434 11.7202C14.8105 11.853 14.7441 12.0246 14.7441 12.2349C14.7441 12.3234 14.7663 12.4175 14.8105 12.5171C14.8548 12.6167 14.9102 12.6997 14.9766 12.7661C14.9987 12.7772 15.0762 12.8187 15.209 12.8906C15.3418 12.9626 15.4857 13.0373 15.6406 13.1147C15.7956 13.2033 15.9312 13.2752 16.0474 13.3306C16.1636 13.3859 16.2217 13.4191 16.2217 13.4302C16.2217 13.4302 16.1636 13.4606 16.0474 13.5215C15.9312 13.5824 15.7956 13.6515 15.6406 13.729C15.4857 13.8065 15.3418 13.8812 15.209 13.9531C15.0762 14.0251 14.9987 14.0721 14.9766 14.0942C14.8991 14.1496 14.841 14.2271 14.8022 14.3267C14.7635 14.4263 14.7441 14.5203 14.7441 14.6089C14.7441 14.7085 14.758 14.797 14.7856 14.8745C14.8133 14.952 14.8604 15.0295 14.9268 15.1069C15.0042 15.1844 15.0872 15.2397 15.1758 15.2729C15.2643 15.3062 15.3584 15.3228 15.458 15.3228C15.5465 15.3228 15.6572 15.2951 15.79 15.2397C15.9229 15.1844 16.2881 15.0073 16.8857 14.7085C17.2288 14.5425 17.5304 14.3903 17.7905 14.252C18.0506 14.1136 18.1973 14.0389 18.2305 14.0278C18.2969 13.9836 18.3605 13.9227 18.4214 13.8452C18.4823 13.7677 18.5238 13.6903 18.5459 13.6128C18.5459 13.5796 18.5487 13.4385 18.5542 13.1895C18.5597 12.9404 18.5625 12.6001 18.5625 12.1685C18.5514 11.5487 18.5431 11.1668 18.5376 11.0229C18.5321 10.8791 18.5182 10.7795 18.4961 10.7241C18.4629 10.6577 18.4131 10.5941 18.3467 10.5332C18.2803 10.4723 18.2194 10.4253 18.1641 10.3921C18.0977 10.3589 18.0119 10.3368 17.9067 10.3257C17.8016 10.3146 17.7214 10.3146 17.666 10.3257ZM10.3613 13.978C10.2839 14.0112 10.2064 14.0693 10.1289 14.1523C10.0514 14.2354 10.0016 14.3156 9.97949 14.3931C9.96842 14.4152 9.96012 14.501 9.95459 14.6504C9.94906 14.7998 9.94629 14.9686 9.94629 15.1567C9.94629 15.3781 9.94352 15.5469 9.93799 15.6631C9.93245 15.7793 9.92969 15.8374 9.92969 15.8374C9.91862 15.8374 9.84115 15.8014 9.69727 15.7295C9.55339 15.6576 9.38184 15.5718 9.18262 15.4722C8.82845 15.2951 8.61263 15.1899 8.53516 15.1567C8.45768 15.1235 8.36914 15.1069 8.26953 15.1069C8.14779 15.1069 8.04818 15.1235 7.9707 15.1567C7.89323 15.1899 7.81576 15.2508 7.73828 15.3394C7.60547 15.4943 7.5446 15.6686 7.55566 15.8623C7.56673 16.056 7.64421 16.2137 7.78809 16.3354C7.81022 16.3576 7.95964 16.4434 8.23633 16.5928C8.51302 16.7422 8.82845 16.9054 9.18262 17.0825C9.81348 17.3924 10.1981 17.5778 10.3364 17.6387C10.4748 17.6995 10.5827 17.73 10.6602 17.73C10.7376 17.73 10.8455 17.6995 10.9839 17.6387C11.1222 17.5778 11.5068 17.3924 12.1377 17.0825C12.5583 16.8722 12.8903 16.7007 13.1338 16.5679C13.3773 16.4351 13.5156 16.3521 13.5488 16.3188C13.6152 16.2635 13.6706 16.186 13.7148 16.0864C13.7591 15.9868 13.7812 15.8983 13.7812 15.8208C13.7812 15.7433 13.7591 15.6548 13.7148 15.5552C13.6706 15.4556 13.6208 15.3781 13.5654 15.3228C13.4769 15.2342 13.3966 15.1761 13.3247 15.1484C13.2528 15.1208 13.1615 15.1069 13.0508 15.1069C12.9512 15.1069 12.8626 15.1235 12.7852 15.1567C12.7077 15.1899 12.4919 15.2951 12.1377 15.4722C11.9385 15.5718 11.7669 15.6576 11.623 15.7295C11.4792 15.8014 11.4017 15.8374 11.3906 15.8374C11.3906 15.8374 11.3879 15.7793 11.3823 15.6631C11.3768 15.5469 11.374 15.3781 11.374 15.1567C11.374 14.9686 11.3713 14.7998 11.3657 14.6504C11.3602 14.501 11.3519 14.4152 11.3408 14.3931C11.3076 14.2603 11.2218 14.1468 11.0835 14.0527C10.9451 13.9587 10.804 13.9116 10.6602 13.9116C10.6048 13.9116 10.5522 13.9172 10.5024 13.9282C10.4526 13.9393 10.4056 13.9559 10.3613 13.978Z" fill="black"/>
</g>
<defs>
<clipPath id="clip0_8_6164">
<rect width="20" height="17" fill="white" transform="matrix(1 0 0 -1 0.660156 17.73)"/>
</clipPath>
</defs>
</svg>
