<svg width="55" height="55" viewBox="0 0 55 55" fill="none" xmlns="http://www.w3.org/2000/svg">
<path d="M40.4499 3.6311C36.3563 1.37684 31.7458 0.228557 27.0731 0.299484C22.4004 0.370411 17.8268 1.6581 13.8035 4.03556C9.7802 6.41302 6.44608 9.79813 4.12995 13.8571C1.81383 17.916 0.595703 22.5085 0.595703 27.1818C0.595703 31.8551 1.81383 36.4476 4.12995 40.5065C6.44608 44.5655 9.7802 47.9506 13.8035 50.328C17.8268 52.7055 22.4004 53.9932 27.0731 54.0641C31.7458 54.1351 36.3563 52.9868 40.4499 50.7325L36.8112 47.0938C32.1251 49.2906 26.8145 49.7648 21.8134 48.433C16.8122 47.1011 12.4408 44.0486 9.46798 39.8121C6.49513 35.5757 5.11123 30.4267 5.55966 25.2707C6.0081 20.1147 8.26015 15.2819 11.9198 11.6223C15.5793 7.96272 20.4121 5.71067 25.5681 5.26223C30.7241 4.8138 35.8731 6.1977 40.1096 9.17055C44.346 12.1434 47.3986 16.5148 48.7304 21.516C50.0623 26.5171 49.5881 31.8277 47.3912 36.5138L51.0299 40.1525C52.7334 37.0598 53.811 33.6618 54.2012 30.1527C54.5914 26.6435 54.2866 23.0919 53.3041 19.7005C52.3217 16.3091 50.6808 13.1445 48.4753 10.3873C46.2698 7.63011 43.5427 5.33434 40.4499 3.6311Z" fill="#F6C42E"/>
<path d="M27.5178 17.4433C29.9516 17.4532 32.2942 18.3705 34.0875 20.0158C35.8809 21.6611 36.9961 23.9162 37.2151 26.3401L41.688 30.8129C42.4838 27.6993 42.2347 24.4104 40.9791 21.4521C39.7235 18.4938 37.5309 16.0298 34.7384 14.4391C31.946 12.8484 28.7083 12.219 25.5233 12.6477C22.3383 13.0764 19.3822 14.5395 17.1098 16.8119C14.8373 19.0844 13.3742 22.0404 12.9455 25.2254C12.5168 28.4105 13.1462 31.6481 14.737 34.4406C16.3277 37.233 18.7916 39.4256 21.75 40.6812C24.7083 41.9368 27.9971 42.1859 31.1108 41.3901L26.6379 36.9173C24.1302 36.6995 21.8037 35.5207 20.1448 33.6274C18.4859 31.7341 17.6231 29.2729 17.7368 26.7582C17.8504 24.2436 18.9316 21.8702 20.7545 20.1342C22.5773 18.3982 25.0006 17.4341 27.5178 17.4433Z" fill="#F6C42E"/>
<path d="M27.4785 27.1802V30.8465L47.032 50.3999H50.6983V46.7336L31.1448 27.1802H27.4785Z" fill="#969696"/>
</svg>
