<svg width="21" height="22" viewBox="0 0 21 22" fill="none" xmlns="http://www.w3.org/2000/svg">
<path d="M9.84375 20.8818H2.625C1.53563 20.8818 0.65625 20.0025 0.65625 18.9131V3.16309C0.65625 2.07371 1.53563 1.19434 2.625 1.19434H18.375C19.4644 1.19434 20.3438 2.07371 20.3438 3.16309V18.9131C20.3438 20.0025 19.4644 20.8818 18.375 20.8818H13.7812V13.6631H15.75L17.0625 10.3818H13.7812V7.75684C13.7812 7.03496 14.3719 7.10059 15.0938 7.10059H16.4062V3.81934H13.7812C12.6919 3.81934 11.7075 4.26559 10.9988 4.97434C10.29 5.68309 9.84375 6.66746 9.84375 7.75684V10.3818H7.21875V13.6631H9.84375V20.8818Z" stroke="#A9AEB2" stroke-width="1.3125" stroke-miterlimit="10" stroke-linecap="round" stroke-linejoin="round"/>
</svg>
