<svg width="24" height="21" viewBox="0 0 24 21" fill="none" xmlns="http://www.w3.org/2000/svg">
<path fill-rule="evenodd" clip-rule="evenodd" d="M0.347914 18.3277C2.56553 19.7739 5.14642 20.5381 7.81115 20.5381C11.7134 20.5381 15.2894 18.9975 17.8812 16.2003C20.3613 13.5232 21.7256 9.92595 21.6578 6.2754C22.5979 5.44867 23.7037 3.87008 23.7037 2.33149C23.7037 1.7417 23.0809 1.36731 22.5759 1.66785C21.6927 2.20123 20.8873 2.34072 20.0589 2.10173C18.3673 0.407231 15.8492 0.0502791 13.7274 1.22576C11.8731 2.25149 10.8422 4.12856 10.935 6.18001C7.80217 5.78716 4.90789 4.17267 2.88988 1.66375C2.55854 1.25448 1.92978 1.30269 1.66631 1.76632C0.694229 3.47723 0.704209 5.45995 1.54954 7.0611C1.14733 7.13393 0.898824 7.48165 0.898824 7.85809C0.898824 9.46745 1.60343 10.9466 2.73819 11.9559C2.5266 12.1651 2.45674 12.4759 2.54656 12.7529C3.04558 14.2935 4.17534 15.4977 5.58755 16.1008C4.05159 16.8547 2.35295 17.106 0.840939 16.9152C0.0584871 16.8065 -0.327749 17.8876 0.347914 18.3277ZM8.01559 16.3642C8.57548 15.9222 8.27807 15.0011 7.57546 14.9857C6.33791 14.959 5.21114 14.3323 4.50953 13.3466C4.84786 13.324 5.19817 13.2707 5.53151 13.1783C6.291 12.967 6.25507 11.8408 5.4836 11.6818C4.08337 11.3926 2.98455 10.3443 2.57236 8.99441C2.94862 9.0898 3.33186 9.14314 3.7141 9.15032C4.4716 9.15442 4.75804 8.15639 4.14026 7.73892C2.74801 6.79628 2.15419 5.13154 2.54741 3.56628C4.9786 6.09777 8.27707 7.62302 11.7662 7.79534C12.2662 7.82714 12.6414 7.34402 12.5317 6.85475C12.0576 4.74279 13.2053 3.26267 14.4379 2.58056C15.6575 1.90358 17.6156 1.69228 19.1166 3.31088C19.5627 3.79399 21.0678 3.81245 21.8333 3.62885C21.4899 4.29352 20.962 4.92434 20.468 5.27924C20.2574 5.43105 20.1366 5.68337 20.1496 5.94699C20.3103 9.31649 19.0887 12.6665 16.7982 15.1375C14.4908 17.6269 11.3001 18.9983 7.81199 18.9983C6.42474 18.9983 5.06443 18.7665 3.77897 18.3193C5.31593 18.0136 6.77604 17.3448 8.01559 16.3642Z" fill="#A9AEB2"/>
</svg>
